HIERARCHY
ROOT Hips
{
 OFFSET 0.000000 0.000000 0.000000
 CHANNELS 6 Xposition Yposition Zposition Yrotation Xrotation Zrotation
 JOINT Chest
 {
  OFFSET 0.000000 9.585900 0.002600
  CHANNELS 3 Yrotation Xrotation Zrotation
  JOINT Chest2
  {
   OFFSET 0.000000 9.601200 -0.005300
   CHANNELS 3 Yrotation Xrotation Zrotation
   JOINT Chest3
   {
    OFFSET 0.000000 9.561800 0.000000
    CHANNELS 3 Yrotation Xrotation Zrotation
    JOINT Chest4
    {
     OFFSET 0.000000 9.552100 0.000000
     CHANNELS 3 Yrotation Xrotation Zrotation
     JOINT Neck
     {
      OFFSET 0.000000 14.453000 0.000000
      CHANNELS 3 Yrotation Xrotation Zrotation
      JOINT Head
      {
       OFFSET 0.000000 8.936500 -0.011300
       CHANNELS 3 Yrotation Xrotation Zrotation
       End Site
       {
        OFFSET 0.000000 17.073600 -0.006000
       }
      }
     }
     JOINT RightCollar
     {
      OFFSET -2.921100 9.558500 0.000000
      CHANNELS 3 Yrotation Xrotation Zrotation
      JOINT RightShoulder
      {
       OFFSET -13.519700 0.000000 0.000000
       CHANNELS 3 Yrotation Xrotation Zrotation
       JOINT RightElbow
       {
        OFFSET 0.000000 -29.696600 0.000000
        CHANNELS 3 Yrotation Xrotation Zrotation
        JOINT RightWrist
        {
         OFFSET 0.000000 -24.004700 0.000000
         CHANNELS 3 Yrotation Xrotation Zrotation
         End Site
         {
          OFFSET 0.000000 -17.728500 0.000000
         }
        }
       }
      }
     }
     JOINT LeftCollar
     {
      OFFSET 2.921100 9.558500 0.000000
      CHANNELS 3 Yrotation Xrotation Zrotation
      JOINT LeftShoulder
      {
       OFFSET 13.519700 0.000000 0.000000
       CHANNELS 3 Yrotation Xrotation Zrotation
       JOINT LeftElbow
       {
        OFFSET 0.000000 -29.696600 0.000000
        CHANNELS 3 Yrotation Xrotation Zrotation
        JOINT LeftWrist
        {
         OFFSET 0.000000 -24.004700 0.000000
         CHANNELS 3 Yrotation Xrotation Zrotation
         End Site
         {
          OFFSET 0.000000 -17.728500 0.000000
         }
        }
       }
      }
     }
    }
   }
  }
 }
 JOINT RightHip
 {
  OFFSET -7.771700 -0.012900 -0.001300
  CHANNELS 3 Yrotation Xrotation Zrotation
  JOINT RightKnee
  {
   OFFSET 0.000000 -40.869800 0.001200
   CHANNELS 3 Yrotation Xrotation Zrotation
   JOINT RightAnkle
   {
    OFFSET 0.000000 -39.717900 0.002100
    CHANNELS 3 Yrotation Xrotation Zrotation
    JOINT RightToe
    {
     OFFSET 0.000000 -4.965400 11.033500
     CHANNELS 3 Yrotation Xrotation Zrotation
     End Site
     {
      OFFSET 0.000000 -1.423100 5.872300
     }
    }
   }
  }
 }
 JOINT LeftHip
 {
  OFFSET 7.771700 -0.012900 -0.001300
  CHANNELS 3 Yrotation Xrotation Zrotation
  JOINT LeftKnee
  {
   OFFSET 0.000000 -40.869800 0.001200
   CHANNELS 3 Yrotation Xrotation Zrotation
   JOINT LeftAnkle
   {
    OFFSET 0.000000 -39.717900 0.002100
    CHANNELS 3 Yrotation Xrotation Zrotation
    JOINT LeftToe
    {
     OFFSET 0.000000 -4.965400 11.033500
     CHANNELS 3 Yrotation Xrotation Zrotation
     End Site
     {
      OFFSET 0.000000 -1.423100 5.872300
     }
    }
   }
  }
 }
}
MOTION
Frames: 6
Frame Time: 0.008333
0.000000 85.388000 0.000000 0.000000 -5.767877 0.000000 0.000000 11.653817 0.000000 0.000000 -5.885947 0.000000 0.000000 -0.000000 0.000000 0.000000 -0.000000 0.000000 0.000000 12.528835 0.000000 0.000000 0.711642 0.000000 0.000000 -0.000000 0.000000 0.000000 0.000000 -90.000000 0.000000 -2.309062 0.000000 0.000000 2.309062 0.000000 0.000000 -0.000000 0.000000 0.000000 -0.000000 90.000000 0.000000 -2.309062 0.000000 0.000000 2.309062 0.000000 0.000000 8.520406 0.000000 0.000000 1.905762 0.000000 -0.000000 -4.658285 0.000000 0.000000 -0.000000 0.000000 0.000000 8.520406 0.000000 0.000000 1.905762 0.000000 -0.000000 -4.658285 0.000000 0.000000 -0.000000 0.000000
27.868735 49.899735 62.421263 172.353266 -29.408289 -6.345993 9.344638 15.984072 5.173804 0.972177 1.901494 0.322966 1.613407 3.139895 0.551464 7.737894 14.164537 3.291863 -7.966467 22.934537 5.564690 -15.752173 7.939717 12.025068 1.408904 -5.069163 -7.815410 13.371659 -16.319877 -15.570566 -49.114230 -68.218031 45.965967 5.502872 -2.701171 57.324756 -6.496935 -5.776455 1.203365 -8.541952 -10.664621 5.921744 176.997049 -75.978971 168.612355 9.914076 9.975861 -58.767659 -0.913473 -51.221501 9.901514 -111.221874 82.256159 -98.836874 1.576297 -13.030987 -3.883507 -0.279803 1.075035 -0.137916 -9.374730 -54.977006 17.192375 -155.120085 80.484607 -162.702779 0.887272 -18.082060 8.118377 -0.464636 -0.564806 -0.213264
27.878897 49.900190 62.415818 172.256813 -29.467231 -6.316014 9.585674 16.002511 5.154307 1.001799 1.916566 0.317337 1.661379 3.163020 0.542474 7.905543 14.177073 3.250571 -8.195661 23.011394 5.656655 -16.176411 8.135236 12.233454 1.769430 -4.891906 -7.636022 13.802600 -16.944401 -16.426739 -47.527258 -67.611680 43.846774 5.287999 -2.759521 56.954841 -6.691292 -5.690095 1.249926 -8.912612 -11.273959 6.460797 179.071167 -76.221769 166.618324 10.051598 9.574023 -58.368910 -0.914732 -51.151855 9.941638 -111.133462 82.293764 -98.748663 1.620237 -13.034266 -3.917641 -0.307501 1.090387 -0.154207 -9.242335 -54.919920 17.191812 -155.271101 80.474729 -162.838867 0.855352 -18.101999 8.128886 -0.474134 -0.570433 -0.206405
27.893934 49.900253 62.410733 172.189701 -29.519297 -6.314689 9.814393 16.038343 5.150816 1.033303 1.934753 0.311665 1.712250 3.191043 0.533506 8.077408 14.198776 3.208506 -8.429826 23.079353 5.729641 -16.605566 8.312913 12.409610 2.127169 -4.744932 -7.466678 14.269029 -17.580652 -17.298773 -45.589099 -67.082184 41.373059 5.054702 -2.868272 56.536397 -6.912680 -5.652826 1.305210 -9.265345 -11.857713 7.015580 -178.904092 -76.450424 164.694740 10.199639 9.185084 -57.932991 -0.914509 -51.097706 9.994220 -111.078395 82.309385 -98.667700 1.615426 -13.024997 -3.947352 -0.291840 1.086902 -0.163325 -9.101657 -54.878272 17.209146 -155.216276 80.445447 -162.752066 0.790192 -18.115002 8.157597 -0.443005 -0.573593 -0.188189
27.906397 49.898060 62.406973 172.147933 -29.546933 -6.294923 10.020797 16.080066 5.119182 1.065999 1.956402 0.306527 1.765013 3.224461 0.525445 8.248773 14.231608 3.169650 -8.666836 23.141071 5.783537 -17.035731 8.477063 12.552477 2.469848 -4.636048 -7.326853 14.799840 -18.221902 -18.199438 -43.473613 -66.563515 38.721349 4.892753 -3.019419 56.017320 -7.163630 -5.666572 1.362060 -9.602109 -12.402422 7.575937 -176.988330 -76.676297 162.901838 10.368149 8.822943 -57.442660 -0.972357 -51.050985 10.026016 -111.054677 82.353759 -98.656774 1.668617 -13.035532 -3.985512 -0.333115 1.101627 -0.180288 -9.020080 -54.856732 17.207798 -155.143268 80.425151 -162.667723 0.762654 -18.114631 8.163976 -0.433016 -0.579750 -0.179072
27.919571 49.896960 62.400151 172.109323 -29.586591 -6.261137 10.233907 16.148853 5.083080 1.099401 1.981596 0.302420 1.818820 3.263343 0.519102 8.416185 14.276060 3.137586 -8.903216 23.208017 5.822750 -17.460427 8.648677 12.667432 2.786629 -4.561365 -7.224814 15.423409 -18.850399 -19.145049 -41.430762 -65.990957 36.126350 4.874089 -3.196203 55.387260 -7.439527 -5.722334 1.419844 -9.925758 -12.902787 8.127145 -175.244886 -76.914343 161.293422 10.562899 8.493795 -56.867709 -0.951722 -51.008264 10.013971 -111.068018 82.368573 -98.666189 1.700454 -13.036530 -4.002172 -0.351712 1.110329 -0.184393 -8.936720 -54.814417 17.188091 -155.232974 80.417052 -162.764029 0.734883 -18.130254 8.184150 -0.464417 -0.577436 -0.189895
